<svg width="56" height="21" viewBox="0 0 56 21" fill="none" xmlns="http://www.w3.org/2000/svg"><path d="M5.684 5.254c.249-.559.462-1.013 2.027-1.013h9.033c.498 0 .996-.245.996-.943V.82c0-.281.285-.666 1.031-.666h18.707c.533 0 .96.28.96.943v1.957c0 .523.25 1.082 1.032 1.082h15.007c.533 0 1.245.14.925.804-.32.663-5.192 10.37-5.523 11.019-.127.249-.225.58-1.212.58h-9.225c-.438 0-1.156 0-1.156.83v2.31c0 .333-.253.832-1.056.832H18.72c-.577 0-1-.292-1-.859v-2.034c0-.442-.24-1.092-.915-1.092H1.268c-.493 0-.958-.374-.662-1.093.296-.72 5.078-10.179 5.078-10.179" fill="#C7D6EE"/><path d="m1.793 14.354.432.001L6.47 6.059h-.432l-4.245 8.294z" fill="url(#paint0_linear_1330_25308)"/><path d="M16.841 15.525H2.312c-.507 0-.685-.228-.488-.615 1.1-2.15 4.719-9.218 4.813-9.405.11-.221.376-.49.868-.49h9.75c1.013 0 1.185-.435 1.185-1.22V1.46c0-.314.212-.523.585-.523h17.86c.48 0 .692.156.692.47v1.726c0 .68-.132 1.778 1.412 1.778h14.757c.663 0 .835.439.484 1.134-1.306 2.587-4.519 8.722-4.619 8.93-.127.265-.52.498-1.147.498h-9.687c-.8 0-1.598.523-1.598 1.308v1.993c0 .363-.221.62-.616.62h-17.33c-.536 0-.74-.298-.74-.695v-1.814c0-.627-.426-1.36-1.65-1.36z" fill="#E9CF98"/><path d="m36.22 15.057 2.035 2.083s.145-.457.697-.57l-2.28-2.088s-.365.203-.453.575zM16.888 16.54s.814.029.814 1.085l1.89-2.741-.524-.371-2.18 2.027zM36.97 6.161l2.146-2.054s-.291-.035-.583-.5l-2.128 2.126.565.428zm-.928-4.198 1.982-1.66s.219.124.31.32L36.26 2.5l-.218-.536zM17.753.903c0-.343.326-.75.859-.75l1.504 1.827s-.45 0-.521.164c-.072.163-.143.512-.143.512L17.754.904zm-.648 3.29s.642-.1.642-.775l1.491 1.724-.95.674-1.183-1.623z" fill="#fff"/><path d="m28.13.154-.068.785h8.593c.282 0 .44.07.547.278l.951-.831s-.24-.232-.675-.232h-9.347z" fill="url(#paint1_linear_1330_25308)"/><path d="M18.612.154c-.23 0-.494.111-.634.284l.617.657s.123-.156.616-.156h8.851l.069-.785h-9.519z" fill="url(#paint2_linear_1330_25308)"/><path d="M17.754.904v2.395c0 .375-.077.468-.077.468l.68.71s.098-.246.098-.396V1.708c0-.15.014-.368.014-.368l-.64-.777s-.075.136-.075.341z" fill="url(#paint3_linear_1330_25308)"/><path d="M37.59 1.267s-.019.279-.019.428c0 .15.019 2.173.019 2.323 0 .15.222.428.222.428l.814-.708s-.193-.064-.193-.44V.905c0-.205-.17-.34-.17-.34l-.673.703z" fill="url(#paint4_linear_1330_25308)"/><path d="m16.796 4.243-9.488.01c-.677 0-1.076.294-1.076.294l.558.737s.223-.27.715-.27h9.89c.345 0 .604-.153.604-.153l-.646-.763s-.318.145-.557.145z" fill="url(#paint5_linear_1330_25308)"/><path d="m1.532 14.974-1.01.697s-.08.287.07.515c.152.226.383.262.383.262l1.315-.923s-.744-.035-.435-.577c.31-.541.293-.745.293-.745s-.361.058-.616.771z" fill="url(#paint6_linear_1330_25308)"/><path d="M4.308 8.157C3.502 9.787.794 15.021.7 15.207c-.095.187-.19.513-.19.513l1.043-.745 4.888-9.566S5.114 6.527 4.308 8.157z" fill="url(#paint7_linear_1330_25308)"/><path d="m2.311 15.547-1.34.947 15.658.037c.385 0 .547.073.547.073l.688-.768s-.657-.29-1.022-.29H2.312z" fill="url(#paint8_linear_1330_25308)"/><path d="M17.568 17.024s.141.278.141.5v1.983c0 .283.113.53.113.53l.67-.777v-2.376c0-.38-.212-.698-.212-.698l-.712.838z" fill="url(#paint9_linear_1330_25308)"/><path d="M37.177 16.638v2.377l1.053.904s.026-.24.026-.524v-1.984c0-.222.066-.36.066-.36l-.921-.905s-.224.113-.224.492z" fill="url(#paint10_linear_1330_25308)"/><path d="M36.389 19.41h-8.28v1.104h9.162c.312 0 .675-.203.744-.255l-1.038-.967s-.069.119-.588.119z" fill="url(#paint11_linear_1330_25308)"/><path d="M18.137 20.377s.213.148.81.148l9.163-.01V19.41h-8.843c-.16 0-.268-.029-.268-.029l-.862.995z" fill="url(#paint12_linear_1330_25308)"/><path d="M20.516 1.958c-.48 0-.959.262-.959.785v2.562c0 .522-.32.732-.692.732H8.262c-.43 0-.763.176-.955.532-.157.293-2.804 5.505-3.66 7.19-.186.365-.024.587.453.587h14.819c.638 0 .745.575.745 1.15v1.991c0 .367.372.786.798.786h7.455V1.957h-7.401z" fill="url(#paint13_linear_1330_25308)"/><path d="m37.875 15.766.853.862s.213-.116 1.21-.116h9.104c.189 0 .45-.094.45-.094l-4.813-.954s-5.571.004-5.832 0h-.03c-.564 0-.942.302-.942.302z" fill="url(#paint14_linear_1330_25308)"/><path d="M38.196 4.758s.416.136.756.136h14.334c.436 0 .691.032.691.032l1.159-.678s-.372-.104-.744-.104H39.505c-.372 0-.527-.086-.527-.086l-.782.7z" fill="url(#paint15_linear_1330_25308)"/><path d="M54.4 5.292s.065.357-.06.6c-.123.243-4.455 8.612-4.651 8.996-.196.385-.638.526-.638.526l.494.97s.174-.13.278-.262c.103-.132 5.434-10.786 5.599-11.16.164-.374.02-.51.02-.51l-1.043.84z" fill="url(#paint16_linear_1330_25308)"/><path d="M48.591 15.486c-.569 0-3.77.024-3.77.024l4.553.908s.284-.115.427-.35c.142-.232 0-.302-.166-.162-.166.14-.45-.092-.309-.256.143-.163.285-.676.285-.676s-.45.512-1.02.512z" fill="url(#paint17_linear_1330_25308)"/><path d="M6.244 14.766c-2.98.195-3.933.75-3.933.75h14.236c1.619 0 1.434.216 1.425.226l1.159-1.204s-2.816 0-4.605-.032a44.836 44.836 0 0 0-.76-.006c-1.913 0-4.92.096-7.522.266zm11.728.977z" fill="url(#paint18_linear_1330_25308)"/><path d="M39.822 14.507c-1.266.032-3.26.032-3.26.032l1.329 1.23s.136-.289 1.309-.289 9.63-.028 9.63-.028.142-.454-2.348-.629c-1.961-.137-4.921-.32-6.352-.32-.103 0-.205.001-.308.004z" fill="url(#paint19_linear_1330_25308)"/><path d="M36.81 6.166s1.994 0 3.26.032c1.268.033 8.946-.31 11.058-.505s2.786-.748 2.786-.748-13.426.07-14.6.07c-1.171 0-1.008-.228-1.008-.228L36.81 6.166z" fill="url(#paint20_linear_1330_25308)"/><path d="M18.35 16.22s.142.454.142.804v1.571c0 .42.143.63.143.63l1.209-1.189s-.18-.419-.18-.733v-1.772c0-.41-.105-.743-.105-.743l-1.21 1.433z" fill="url(#paint21_linear_1330_25308)"/><path d="M36.092 15.521c0 .41-.029 1.506-.029 1.821 0 .314-.073.694-.073.694l1.209 1.188s.143-.21.143-.629v-1.571c0-.35.142-.803.142-.803l-1.295-1.466c-.063.25-.096.508-.097.766z" fill="url(#paint22_linear_1330_25308)"/><path d="m19.026 19.364 8.82.07.035-.001v-1.16l-7.681-.028-1.174 1.119z" fill="url(#paint23_linear_1330_25308)"/><path d="M27.917 18.273h-.036v1.16l9.069-.104-1.458-1.084-7.575.027z" fill="url(#paint24_linear_1330_25308)"/><path d="M19.145.933a1.1 1.1 0 0 0-.48.132l1.17 1.13s.115-.245.938-.245h7.143V.933h-8.771z" fill="url(#paint25_linear_1330_25308)"/><path d="M27.917.933v1.016h7.143c.823 0 .994.352.994.352l1.169-1.129s-.285-.239-.534-.239h-8.772z" fill="url(#paint26_linear_1330_25308)"/><path d="M18.444 1.92v2.051c0 .244-.11.532-.11.532l1.146 1.276s.077-.106.077-.637c0-.532.046-2.613.046-2.613l-1.144-1.261s-.015.333-.015.652z" fill="url(#paint27_linear_1330_25308)"/><path d="M36.102 2.553v2.55c0 .532.253.676.253.676l1.4-1.384s-.183-.29-.183-.532c0-.244-.012-1.727-.012-2.046 0-.319.014-.614.014-.614l-1.472 1.35z" fill="url(#paint28_linear_1330_25308)"/><path d="M17.497 5.042H7.682c-.285 0-.747.105-.89.245l.89.908s.248-.174.853-.174h10.207c.284 0 .569-.105.569-.105l-1.138-1.153s-.285.28-.676.28z" fill="url(#paint29_linear_1330_25308)"/><path d="M48.067 14.385s.55-.203.722.438c0 0 .137.203.515-.338.377-.54 3.95-7.757 3.915-7.86-.035-.1-.756-.236-.756-.236l-4.396 7.996z" fill="url(#paint30_linear_1330_25308)"/><path d="M52.567 6.457c.172.101.344.236.103.742-.24.505-2.988 5.768-3.571 6.78-.584 1.012-.07 1.417-.07 1.417s.448-.203.582-.422c.135-.22 4.33-8.382 4.62-8.93.288-.549.088-.768.088-.768l-1.752 1.181z" fill="url(#paint31_linear_1330_25308)"/><path d="M27.917 1.958v16.315h7.345c.425 0 .798-.157.798-.629v-2.433c0-.47.32-.836.692-.836h11.08c.39 0 .739-.223.941-.59.906-1.645 3.4-6.413 3.588-6.798.23-.469.088-.74-.446-.74H37.23c-.639 0-1.118-.471-1.118-1.046V2.534c0-.366-.213-.576-.692-.576h-7.504z" fill="url(#paint32_linear_1330_25308)"/><path d="m2.19 15.061 1.422-.846s-.162-.07.093-.573c.257-.503 2.657-5.31 2.657-5.31l-.536-.114-3.635 6.843z" fill="url(#paint33_linear_1330_25308)"/><path d="M2.062 14.439c-.356.629-.284.873-.284.873l.853-.56s3.805-7.23 4.196-8.068c.392-.838-.191-1.18-.191-1.18S2.418 13.81 2.062 14.44z" fill="url(#paint34_linear_1330_25308)"/><path d="M2.638 15.545c-.056.037-.576.1-.678 0-.102-.1-.272-.177-.136-.288.136-.112 1.809-1.088 1.809-1.088s-.203.11 1.515.11h13.748c.362 0 .7.244.746.4.046.156-.045.222-.158.2-.113-.022-.407-.111-.475-.223-.067-.11.09-.199-.904-.199-.995 0-8.593.111-10.31.266-1.72.156-3.981.045-5.157.822zm50.78-10.572c.056-.036.576-.099.678 0 .102.1.271.178.136.29-.136.11-1.81 1.087-1.81 1.087s.204-.11-1.515-.11H37.16c-.361 0-.7-.244-.745-.4-.046-.156.044-.223.157-.2.114.022.407.111.476.222.067.111-.091.2.904.2s8.592-.111 10.31-.267c1.719-.155 3.981-.044 5.156-.822zM7.076 6.258c0-.157.089-.454.018-.54-.071-.088.142-.193.284-.106.143.087.445.157.48.227.036.07-.017.244-.213.314s-.373.227-.676.873c-.302.647-2.027 3.93-2.027 3.93s.25-.524.142-.542c-.106-.017-.355.42-.355.42l2.347-4.576zm11.89-.309c-.148.015-.189-.143-.063-.164.126-.02.293-.03.44-.597.146-.566.042-2.284.02-2.592-.02-.309-.167-.679.043-.843.21-.165.356.185.9.185.545 0 1.781-.041 1.781-.041s-1.739.122-2.032.164c-.293.041-.545.267-.503.679.042.411-.063 2.531-.146 2.757-.084.226-.231.432-.44.452zm11.73-4.04c-.23.01 4.417.054 4.71.054.293 0 .628.087.691.375.063.288.019 1.233.019 1.233s.144-1.212.354-1.438c.209-.227.146-.556-.126-.495-.273.062-2.43.129-5.648.271zm6.206 12.614c-.146-.022-.313-.041-.355.082-.042.122.188.205-.042.327-.23.124-.4.2-.4.097 0-.103.118-.63.557-.63l11.44-.02c.167 0 .376.02.46.184.083.165.187.575.25.698s-.041.123-.23-.123c-.188-.247-.668-.349-1.044-.328-.377.02-10.636-.287-10.636-.287zm11.952.348s-.104-.225-.167-.37c-.063-.143-.251-.204-.251-.204s.209-.247.501-.78c.293-.533 1.672-3.079 1.818-3.427 0 0-.313.944.293.164 0 0-1.964 3.652-2.09 3.899-.125.246-.105.718-.105.718zm-29.061 2.873s.025.295-.15.418c-.174.122-.25.343-.1.442.15.098.25.049.35-.099.1-.147.45-.27.675-.22 0 0-.775.097-.775-.541zm10.768.526 4.467.23.424.018s-.447-.07-.315-.21l-4.576-.038zm4.998-.035s-.125.197.075.294c.2.098.4.196.525.05.124-.148-.1-.54-.075-.81 0 0 .1.417-.525.466" fill="#fff"/><defs><linearGradient id="paint0_linear_1330_25308" x1="6.191" y1="6.19" x2="6.162" y2="17.061" gradientUnits="userSpaceOnUse"><stop stop-color="#C7D6EE"/><stop offset=".185" stop-color="#91AFC8"/><stop offset="1" stop-color="#002334"/></linearGradient><linearGradient id="paint1_linear_1330_25308" x1="-28459.6" y1="10137.4" x2="-28452.9" y2="10130.6" gradientUnits="userSpaceOnUse"><stop stop-color="#E1E8F5"/><stop offset=".899" stop-color="#92A5C1"/><stop offset=".955" stop-color="#476886"/><stop offset="1" stop-color="#E1E8F5"/></linearGradient><linearGradient id="paint2_linear_1330_25308" x1="20.592" y1="3.05" x2="27.424" y2="-3.906" gradientUnits="userSpaceOnUse"><stop stop-color="#E1E8F5"/><stop offset=".039" stop-color="#476886"/><stop offset=".09" stop-color="#92A5C1"/><stop offset="1" stop-color="#E1E8F5"/></linearGradient><linearGradient id="paint3_linear_1330_25308" x1="17.223" y1="3.308" x2="19.45" y2="1.194" gradientUnits="userSpaceOnUse"><stop stop-color="#E1E8F5"/><stop offset=".157" stop-color="#C7D6EE"/><stop offset="1" stop-color="#E1E8F5"/></linearGradient><linearGradient id="paint4_linear_1330_25308" x1="38.977" y1="3.373" x2="36.619" y2="1.134" gradientUnits="userSpaceOnUse"><stop stop-color="#E1E8F5"/><stop offset=".157" stop-color="#C7D6EE"/><stop offset="1" stop-color="#E1E8F5"/></linearGradient><linearGradient id="paint5_linear_1330_25308" x1="9.171" y1="7.616" x2="16.834" y2="-.185" gradientUnits="userSpaceOnUse"><stop stop-color="#476886"/><stop offset=".129" stop-color="#92A5C1"/><stop offset="1" stop-color="#E1E8F5"/></linearGradient><linearGradient id="paint6_linear_1330_25308" x1="1.793" y1="15.787" x2=".9" y2="14.488" gradientUnits="userSpaceOnUse"><stop stop-color="#002334"/><stop offset=".107" stop-color="#fff"/><stop offset=".185" stop-color="#91AFC8"/><stop offset=".242" stop-color="#002334"/><stop offset=".534" stop-color="#5E738F"/><stop offset=".758" stop-color="#002334"/><stop offset="1" stop-color="#002334"/></linearGradient><linearGradient id="paint7_linear_1330_25308" x1="6.72" y1="8.946" x2="-.269" y2="12.568" gradientUnits="userSpaceOnUse"><stop stop-color="#91AFC8"/><stop offset="1" stop-color="#002334"/></linearGradient><linearGradient id="paint8_linear_1330_25308" x1="9.595" y1="17.175" x2="9.074" y2="14.165" gradientUnits="userSpaceOnUse"><stop stop-color="#A5B9CC"/><stop offset="1" stop-color="#002334"/></linearGradient><linearGradient id="paint9_linear_1330_25308" x1="17.746" y1="18.11" x2="18.643" y2="18.11" gradientUnits="userSpaceOnUse"><stop stop-color="#5E738F"/><stop offset=".489" stop-color="#91AFC8"/><stop offset="1" stop-color="#91AFC8"/></linearGradient><linearGradient id="paint10_linear_1330_25308" x1="38.121" y1="18.032" x2="37.011" y2="18.032" gradientUnits="userSpaceOnUse"><stop stop-color="#5E738F"/><stop offset=".32" stop-color="#91AFC8"/><stop offset="1" stop-color="#91AFC8"/></linearGradient><linearGradient id="paint11_linear_1330_25308" x1="31.825" y1="21.947" x2="34.782" y2="16.733" gradientUnits="userSpaceOnUse"><stop stop-color="#A5B9CC"/><stop offset="1" stop-color="#002334"/></linearGradient><linearGradient id="paint12_linear_1330_25308" x1="22.176" y1="18.266" x2="25.156" y2="23.521" gradientUnits="userSpaceOnUse"><stop stop-color="#002334"/><stop offset=".775" stop-color="#A5B9CC"/><stop offset="1" stop-color="#A5B9CC"/></linearGradient><linearGradient id="paint13_linear_1330_25308" x1="12.976" y1="3.351" x2="26.283" y2="26.817" gradientUnits="userSpaceOnUse"><stop stop-color="#FFEFCF"/><stop offset=".461" stop-color="#FFE4A6"/><stop offset="1" stop-color="#BC956E"/></linearGradient><linearGradient id="paint14_linear_1330_25308" x1="41.703" y1="18.258" x2="45.462" y2="13.992" gradientUnits="userSpaceOnUse"><stop stop-color="#5E738F"/><stop offset=".607" stop-color="#91AFC8"/><stop offset="1" stop-color="#C7DFF4"/></linearGradient><linearGradient id="paint15_linear_1330_25308" x1="44.6" y1=".987" x2="49.555" y2="9.726" gradientUnits="userSpaceOnUse"><stop stop-color="#E1E8F5"/><stop offset=".815" stop-color="#7F97B4"/><stop offset=".904" stop-color="#476886"/><stop offset="1" stop-color="#002334"/></linearGradient><linearGradient id="paint16_linear_1330_25308" x1="49.09" y1="15.918" x2="57.157" y2="1.691" gradientUnits="userSpaceOnUse"><stop stop-color="#8CA0B5"/><stop offset=".14" stop-color="#E1E8F5"/><stop offset=".815" stop-color="#7F97B4"/><stop offset=".904" stop-color="#476886"/><stop offset="1" stop-color="#002334"/></linearGradient><linearGradient id="paint17_linear_1330_25308" x1="46.898" y1="16.084" x2="49.81" y2="14.373" gradientUnits="userSpaceOnUse"><stop stop-color="#002334"/><stop offset=".815" stop-color="#A5B9CC"/><stop offset=".888" stop-color="#002334"/><stop offset="1" stop-color="#002334"/></linearGradient><linearGradient id="paint18_linear_1330_25308" x1="6.926" y1="11.31" x2="16.366" y2="20.921" gradientUnits="userSpaceOnUse"><stop stop-color="#D4BC7B"/><stop offset=".332" stop-color="#7F5F39"/><stop offset="1" stop-color="#D4BC7B"/></linearGradient><linearGradient id="paint19_linear_1330_25308" x1="45.404" y1="12.334" x2="38.661" y2="19.198" gradientUnits="userSpaceOnUse"><stop stop-color="#D4BC7B"/><stop offset=".332" stop-color="#7F5F39"/><stop offset="1" stop-color="#D4BC7B"/></linearGradient><linearGradient id="paint20_linear_1330_25308" x1="49.73" y1="1.256" x2="38.832" y2="12.351" gradientUnits="userSpaceOnUse"><stop stop-color="#D4BC7B"/><stop offset=".332" stop-color="#7F5F39"/><stop offset="1" stop-color="#D4BC7B"/></linearGradient><linearGradient id="paint21_linear_1330_25308" x1="18.624" y1="17.006" x2="20.074" y2="17.006" gradientUnits="userSpaceOnUse"><stop stop-color="#D3BD8B"/><stop offset="1" stop-color="#7F5F39"/></linearGradient><linearGradient id="paint22_linear_1330_25308" x1="37.229" y1="16.99" x2="35.779" y2="16.99" gradientUnits="userSpaceOnUse"><stop stop-color="#D3BD8B"/><stop offset="1" stop-color="#7F5F39"/></linearGradient><linearGradient id="paint23_linear_1330_25308" x1="22.655" y1="17.453" x2="25.277" y2="22.077" gradientUnits="userSpaceOnUse"><stop stop-color="#7F5F39"/><stop offset=".646" stop-color="#D3BD8B"/><stop offset=".888" stop-color="#FFE4A6"/><stop offset="1" stop-color="#FFE4A6"/></linearGradient><linearGradient id="paint24_linear_1330_25308" x1="33.198" y1="17.457" x2="30.333" y2="22.509" gradientUnits="userSpaceOnUse"><stop stop-color="#7F5F39"/><stop offset=".455" stop-color="#D3BD8B"/><stop offset=".888" stop-color="#FFE4A6"/><stop offset="1" stop-color="#FFE4A6"/></linearGradient><linearGradient id="paint25_linear_1330_25308" x1="21.194" y1="3.549" x2="27.304" y2="-2.672" gradientUnits="userSpaceOnUse"><stop stop-color="#D4BC7B"/><stop offset=".039" stop-color="#7F5F39"/><stop offset=".107" stop-color="#D1AC75"/><stop offset="1" stop-color="#D4BC7B"/></linearGradient><linearGradient id="paint26_linear_1330_25308" x1="34.702" y1="3.633" x2="28.486" y2="-2.696" gradientUnits="userSpaceOnUse"><stop stop-color="#D4BC7B"/><stop offset=".039" stop-color="#7F5F39"/><stop offset=".107" stop-color="#D1AC75"/><stop offset="1" stop-color="#D4BC7B"/></linearGradient><linearGradient id="paint27_linear_1330_25308" x1="18.094" y1="4.31" x2="20.369" y2="2.15" gradientUnits="userSpaceOnUse"><stop stop-color="#FFE292"/><stop offset=".157" stop-color="#D1AC75"/><stop offset="1" stop-color="#FFE292"/></linearGradient><linearGradient id="paint28_linear_1330_25308" x1="37.85" y1="4.292" x2="35.478" y2="2.04" gradientUnits="userSpaceOnUse"><stop stop-color="#FFE292"/><stop offset=".157" stop-color="#D1AC75"/><stop offset="1" stop-color="#FFE292"/></linearGradient><linearGradient id="paint29_linear_1330_25308" x1="10.204" y1="8.42" x2="17.294" y2="1.201" gradientUnits="userSpaceOnUse"><stop stop-color="#7F5F39"/><stop offset="1" stop-color="#BD9B6A"/></linearGradient><linearGradient id="paint30_linear_1330_25308" x1="49.504" y1="9.407" x2="52.52" y2="12.478" gradientUnits="userSpaceOnUse"><stop stop-color="#7F5F39"/><stop offset="1" stop-color="#D4BC7B"/></linearGradient><linearGradient id="paint31_linear_1330_25308" x1="48.752" y1="15.14" x2="55.346" y2="2.206" gradientUnits="userSpaceOnUse"><stop stop-color="#A78A5E"/><stop offset=".764" stop-color="#7F5F39"/><stop offset=".916" stop-color="#674C2B"/><stop offset="1" stop-color="#674C2B"/></linearGradient><linearGradient id="paint32_linear_1330_25308" x1="44.441" y1="17.367" x2="25.561" y2="-5.541" gradientUnits="userSpaceOnUse"><stop stop-color="#FFEFCF"/><stop offset=".461" stop-color="#FFE4A6"/><stop offset="1" stop-color="#BC956E"/></linearGradient><linearGradient id="paint33_linear_1330_25308" x1="1.631" y1="14.268" x2="8.178" y2="7.602" gradientUnits="userSpaceOnUse"><stop stop-color="#7F5F39"/><stop offset="1" stop-color="#E9CF98"/></linearGradient><linearGradient id="paint34_linear_1330_25308" x1=".741" y1="13.954" x2="9.548" y2="4.987" gradientUnits="userSpaceOnUse"><stop stop-color="#7F5F39"/><stop offset="1" stop-color="#E4CB90"/></linearGradient></defs></svg>