<svg width="59" height="23" viewBox="0 0 59 23" fill="none" xmlns="http://www.w3.org/2000/svg"><path fill-rule="evenodd" clip-rule="evenodd" d="M0 11.525c0-6.119 13.126-11 29.5-11 16.266 0 29.5 4.935 29.5 11 0 6.066-13.234 11-29.5 11S0 17.607 0 11.525zm41.258 2.452c-.064-.023-.13-.071-.139-.122a.134.134 0 0 1 .01-.099c.24-.481.409-1.094-.123-1.346-.515-.246-1.298.204-2.007 1.072-.582.71-.897 1.433-.907 2.137-.005.25.091.56.314.674.5.263 1.105-.128 1.54-.486.29-.236.528-.481.74-.796l.098-.143c.182-.267.328-.48.485-.814.025-.053.013-.07-.01-.077zm5.485-5.724c.085 0 .125.05.087.117v-.002c-.065.11-.462.72-1.003 1.552-1.357 2.087-3.62 5.568-3.815 6.052-.086.214-.096.377-.008.495.226.305.729.128 1.044-.091.671-.46 1.194-.99 1.701-1.503.2-.202.399-.403.602-.595.041-.03.112-.043.16-.002l.122.11c.085.074.175.154.246.227.05.054.031.107.005.14-.702.852-1.479 1.658-2.221 2.228-1.157.89-2.31 1.116-2.88.546a1.241 1.241 0 0 1-.345-.773c-.006-.14-.078-.146-.145-.082-.681.671-1.866 1.414-2.944.886-.9-.443-1.11-1.511-.94-2.413.002-.02-.017-.146-.127-.07a3.157 3.157 0 0 1-.738.394c-.375.139-.551.193-.899.188-.437-.003-.831-.188-1.11-.619-.154-.232-.217-.587-.233-.846-.002-.03-.04-.08-.081-.013-.564.856-1.098 1.69-1.646 2.544l-.506.789c-.037.053-.071.088-.146.09h-.343c-.353 0-.725 0-1.1.002-.088 0-.13-.067-.083-.153.097-.187.36-.595.7-1.125.555-.864 1.316-2.05 1.905-3.12.262-.474.21-.719.046-.824-.203-.131-.608.066-.95.325-.782.59-1.459 1.454-1.89 2.006h-.001l-.22.28c-.076.092-.15.198-.235.322a8.597 8.597 0 0 1-.83 1.049c-.962 1.037-2.235 1.633-3.463 1.222a2.076 2.076 0 0 1-1.341-1.419c-.037-.127-.108-.163-.178-.079-.199.246-.604.608-.943.837-.037.026-.128.08-.207.041-.071-.031-.323-.385-.373-.487a.168.168 0 0 1 .04-.195c.484-.423.75-.663.96-.927.157-.196.278-.417.42-.772.294-.738.965-2.118 2.304-2.831.511-.272 1.03-.468 1.603-.534.247-.027.45.004.523.196l.047.128c.03.082.066.178.092.257.026.078.007.138-.086.173-.79.298-1.581.761-2.129 1.49-.62.827-.788 1.824-.372 2.397.303.415.793.488 1.264.34.715-.225 1.323-.888 1.636-1.623.34-.802.396-1.752.145-2.587-.042-.144-.005-.256.09-.333.154-.124.357-.227.467-.283l.035-.017.024-.013a.347.347 0 0 1 .45.11c.26.384.402.926.415 1.485.016.118.067.12.125.06.116-.124.231-.25.346-.375.342-.375.679-.745 1.052-1.043.453-.36 1.035-.653 1.58-.64.701.015 1.052.49 1.028 1.334-.002.108.076.101.128.028.21-.297.348-.445.59-.646.485-.398.983-.577 1.502-.54.638.046 1.148.627 1.044 1.286-.067.425-.299.8-.692.994-.334.162-.723.134-.995-.108-.224-.204-.296-.495-.237-.787.012-.06-.066-.117-.132-.05-.624.647-.67 1.482-.262 1.858.45.415 1.124.137 1.616-.182.523-.34.978-.75 1.426-1.154.323-.292.642-.58.981-.836.537-.405 1.148-.765 1.833-.856.38-.05.745-.023 1.118.128.49.197.8.608.84.966.01.105.09.118.155.026.132-.206.464-.706.85-1.287.74-1.116 1.68-2.532 1.792-2.746.052-.102.109-.116.219-.116h1.49zm-20.24.906c.018.097.056.116.1.108.22-.044.462-.224.604-.433.13-.189.191-.462.062-.571-.115-.099-.302-.071-.441.051a.972.972 0 0 0-.325.845zm-11.012 8.42c-1.61.01-3.03-.979-3.193-2.693-.09-.95.18-1.796.72-2.493.48-.621 1.291-1.137 1.978-1.264.223-.04.524-.015.648.133.194.225.139.473-.056.572-.524.266-1.155.721-1.467 1.343-.253.508-.304 1.12.083 1.702.646.971 2.45.998 4.127-.55.415-.38.786-.744 1.164-1.176.739-.84.984-1.145 1.966-2.5.01-.015.016-.036.01-.046-.008-.018-.02-.02-.05-.023a3.01 3.01 0 0 0-1.782.625c-.16.116-.39.1-.49-.053-.113-.173-.032-.398.152-.524.812-.562 1.693-.706 2.595-.853l.27-.045s.07.003.127-.072c.173-.22.328-.432.483-.643.21-.288.42-.573.671-.878.44-.535 1.007-1.027 1.44-1.397a5.879 5.879 0 0 1 1.228-.82l.16-.085c.105-.054-.012-.119-.044-.119-.162-.03-.324-.06-.487-.092-2.051-.39-4.166-.793-6.193-.047-1.515.562-2.179 1.757-1.86 2.555.228.567.977.659 1.678.318a3.785 3.785 0 0 0 1.503-1.33c.214-.327.664-.091.42.477-.64 1.496-1.862 2.683-3.352 2.733-1.268.04-2.086-.887-2.083-2.031.005-2.257 2.532-3.744 5.187-3.966 2.237-.184 4.392.176 6.572.54.936.155 1.876.312 2.83.427 2.432.293 4.764.3 7.21-.26.288-.062.491.122.472.412-.023.42-.35.824-1.156 1.26-.916.5-1.874.652-2.874.66-1.664.014-3.25-.425-4.837-.865-.72-.2-1.441-.4-2.17-.557l.003.055c.006.087.012.179-.058.232-1.292.947-2.46 1.91-3.242 3.261-.027.031-.014.061.033.058.222-.012.436-.022.647-.031.434-.02.85-.039 1.277-.073.11-.01.115-.037.105-.117-.056-.466.081-.997.493-1.362.422-.376.95-.42 1.3-.148.398.308.363.863.145 1.279a1.55 1.55 0 0 1-.939.757s-.074.016-.063.083c.008.064.186.185.334.287.098.067.184.125.2.153.04.067.018.17-.054.25a.303.303 0 0 1-.231.11c-.08-.002-.129-.028-.227-.08l-.01-.006a2.258 2.258 0 0 1-.663-.53c-.06-.076-.092-.078-.244-.07a44.24 44.24 0 0 0-2.48.233c-.176.02-.202.054-.238.115l-.078.128c-1.133 1.858-2.342 3.84-3.666 5.178-1.453 1.467-2.661 1.853-3.943 1.863zM2.225 11.53c0-5.066 12.21-9.205 27.274-9.205s27.273 4.14 27.273 9.205-12.21 9.205-27.273 9.205c-15.064 0-27.274-4.14-27.274-9.205zm-.994 0c0 5.544 12.656 10.04 28.268 10.04 15.61 0 28.266-4.496 28.266-10.04 0-5.546-12.655-10.04-28.266-10.04-15.612 0-28.268 4.494-28.268 10.04z" fill="#1351D8"/></svg>