<svg width="61" height="12" viewBox="0 0 61 12" fill="none" xmlns="http://www.w3.org/2000/svg"><path d="M26.556 11.488c.216 0 1.53-.008 2.592-.085 1.282-.094 1.943-.556 2.428-1.217.6-.818.596-2.353.596-3.548-.001-1.333.016-5.198.01-5.542-.003-.346-.128-.526-.505-.523-.377.003-1.44 0-1.806.004l-.65-.004c-.377-.003-.502.177-.507.523v.37c.005.41-.005 4.308-.007 5.222v.405c-.01.842-.108 1.66-1.242 1.788-.49.054-.714.078-1.32.078-.607 0-.83-.024-1.327-.078-1.134-.126-1.203-.946-1.213-1.788v-.405c-.002-.914-.012-4.813-.007-5.222v-.37c-.005-.346-.13-.526-.507-.523l-.65.004c-.366-.004-1.429-.001-1.806-.004s-.501.177-.506.523c-.005.344-.001 4.209-.003 5.542 0 1.195-.004 2.73.596 3.548.483.662 1.135 1.123 2.413 1.217 1.062.078 2.337.085 2.62.085h.8zm-23.052-.502c-.007.376-.113.524-.479.533-.367.011-2.165.005-2.493.002-.326-.004-.527-.107-.527-.475C.002 10.68.002 1.457 0 1.106 0 .759.156.594.5.605.844.612 2.61.594 3.078.602c.355-.002.438.212.44.595.008.516-.005 9.416-.014 9.79zm48.983-3.73c.006.865.206 1.445 1.151 1.599.757.082 1.78.099 2.566.015.72-.083 1.273-.389 1.306-1.244.036-.721.04-.846.041-1.607.004-1.847-.015-4.53-.009-4.793l.003-.112c-.006-.409.172-.582.502-.582l.198-.007c.375.004 1.887.007 2.253.007.33 0 .507.173.502.582l-.005.128c.007.385-.004 4.471-.008 5.677-.02.606-.062 2.016-.506 2.91-.387.777-1.08 1.374-2.258 1.496-2.263.237-4.327.139-5.916.069-1.182-.064-1.943-.342-2.574-1.078-.714-.845-.752-2.287-.741-3.943-.014-3.651-.025-4.704-.02-5.052v-.207c-.005-.409.173-.582.503-.582l.196-.007c.38.004 1.948.007 2.314.007.33 0 .508.173.502.582-.006.41-.002 5.088 0 6.118v.024zM34.88.565c.353-.011 6.673-.004 8.649.008 1.75.02 2.396.282 2.871.949.548.77.605 1.737.162 2.531-.318.57-.906 1.067-1.788 1.52-.7.377-1.925.95-3.124 1.503-1.604.744-3.057 1.388-3.301 1.522-.331.182-.206.455.057.45.685-.008 7.305-.064 7.659-.065.355 0 .47.134.47.534 0 .418.003 1.134.004 1.458-.008.39-.127.497-.479.5-.402.005-7.454.007-7.956.01-1.114-.003-2.262.001-2.947-.347-.855-.436-1.145-1.31-1.146-1.923.041-1.494.834-1.973 2.263-2.668 1.59-.757 6.28-2.886 6.56-3.023.346-.169.238-.502-.083-.491-.247.005-7.432.044-7.787.043-.353 0-.578-.06-.578-.42l-.004-1.629c0-.372.143-.45.498-.462zM16.324 6.182c-1.59-.693-6.227-2.233-6.842-2.552-.296-.134-.276-.531.125-.531.684.01 7.482.025 7.837.027.354 0 .504-.144.504-.545.001-.418-.002-1.185-.006-1.522-.005-.343-.122-.472-.416-.473l-8.143.01C7.192.59 6.63.929 6.009 1.71c-.81 1.021-.552 2.403-.088 3.116.523.797 1.387 1.15 2.76 1.654 1.665.568 5.585 2.015 5.585 2.015.36.163.332.558-.112.558 0 0-7.477-.07-7.831-.071-.355 0-.528.181-.53.54 0 .36-.003 1.02-.004 1.394 0 .37.102.582.457.595.352.012 6.782-.013 8.759-.017 1.504-.004 2.957-.492 3.255-2.236.179-1.502-.427-2.433-1.936-3.077" fill="#E60012"/></svg>