<svg width="31" height="32" viewBox="0 0 31 32" fill="none" xmlns="http://www.w3.org/2000/svg"><g clip-path="url(#clip0_1338_46576)" fill-rule="evenodd" clip-rule="evenodd" fill="#212121"><path d="M22.133.507H9.003L.457 9.054v13.027l8.48 8.514h13.06l8.548-8.548V8.987L22.133.506zm5.813 20.378-7.112 7.111H10.166L3.054 20.92V10.217l7.112-7.078H20.97l6.976 7.01v10.736z"/><path d="M9.112 12.131 7.3 8.44l-2.702 2.53v9.06l2.599 2.633v-8.821l2.257 5.026 2.564-6.701v14.052h2.872V4.814h-3.043l-2.735 7.317zm7.786-7.317v21.404h3.283l6.223-6.189v-4.513h-4.787v2.599h1.778c.478-.069.512.479.17.889-.341.41-3.795 3.795-3.795 3.795V8.234l4.035 4.205v1.026h2.598V11.07L20.25 4.814h-3.35z"/></g><defs><clipPath id="clip0_1338_46576"><path fill="#fff" transform="translate(0 .05)" d="M0 0h31v31H0z"/></clipPath></defs></svg>